:SAMPLES-PER-SECOND 30
:FULLY-SPECIFIED
:DEGREES
209
root  -52.9358 41.5861 -3.67352 -149.535 -88.2846 147.441
RightUpLeg  1.44345 -7.53743 -3.87831
RightLeg  3.79148 -3.34783 3.50798
RightFoot  -1.07088 0.233897 -2.68152
RightToes  5.82063e-011 0 -3.6325e-017
Spine  -1.80691 -0.461733 3.78887
Spine1  8.28153 -0.19154 -1.34616
HEad  -6.74472 3.75379 -4.26959
LeftShoulder1  3.57692 -6.84246 -28.4554
LeftArm  -15.1908 16.1598 -7.45774
LeftForeArm  18.4196 -12.5812 -3.0562
LeftHand  -0.244104 0.0205437 5.32207
RightShoulder  3.13733 5.91308 27.2844
RightArm  -17.1838 -12.7761 8.72147
RightForeArm  -2.60549 6.44029 4.11005
RightHand  -1.00269 2.43793 -15.0079
LeftUpLeg  0.470485 4.57756 3.51733
LeftLeg  0.0244401 4.17193 -3.60973
LeftFoot  2.089 0.0114522 -0.204436
LeftToes  4.36525e-011 -9.98543e-011 1.0027e-011
210
root  -53.1519 41.5891 -3.57543 -159.445 -87.6308 157.353
RightUpLeg  1.71513 -7.56831 -4.03311
RightLeg  3.77465 -2.55796 3.46896
RightFoot  -1.26973 0.211907 -2.50064
RightToes  5.82063e-011 0 -3.6325e-017
Spine  -1.63599 -0.436861 3.94875
Spine1  7.70124 -0.0543489 -1.81249
HEad  -6.09959 4.30435 -3.95561
LeftShoulder1  2.96264 -6.02196 -24.856
LeftArm  -15.6261 14.9073 -4.15135
LeftForeArm  18.0714 -11.0033 -2.77392
LeftHand  -0.244104 0.0205437 5.32207
RightShoulder  2.50267 4.98364 23.2745
RightArm  -17.9415 -11.4587 5.7232
RightForeArm  -5.03214 5.53403 3.93987
RightHand  -1.12793 3.11225 -15.5575
LeftUpLeg  0.795485 4.65433 3.46925
LeftLeg  0.318454 4.81866 -3.65634
LeftFoot  1.44226 -0.00128473 -0.0743351
LeftToes  4.36525e-011 -9.98543e-011 1.0027e-011
211
root  -53.3493 41.588 -3.50101 -164.284 -87.0711 162.27
RightUpLeg  1.90243 -7.55507 -4.12592
RightLeg  3.7301 -1.95499 3.42081
RightFoot  -1.46494 0.187309 -2.28149
RightToes  5.82063e-011 0 -3.6325e-017
Spine  -1.74311 -0.408307 3.88461
Spine1  7.37002 0.0232002 -2.02873
HEad  -5.61238 4.54111 -3.4807
LeftShoulder1  2.38584 -5.19861 -20.958
LeftArm  -16.307 14.0163 -1.94323
LeftForeArm  17.4663 -10.1172 -2.45331
LeftHand  -0.244104 0.0205437 5.32207
RightShoulder  1.90689 3.91832 19.2241
RightArm  -17.952 -9.82345 3.3842
RightForeArm  -7.385 5.0063 4.08988
RightHand  -1.14208 2.99557 -15.9581
LeftUpLeg  1.04342 4.75611 3.47129
LeftLeg  0.461062 5.27667 -3.73961
LeftFoot  0.973336 -0.00462727 -0.0514918
LeftToes  4.36525e-011 -9.98543e-011 1.0027e-011
212
root  -53.5465 41.5931 -3.44599 -167.29 -86.5914 165.397
RightUpLeg  2.10859 -7.47218 -4.16032
RightLeg  3.55392 -1.50575 3.34788
RightFoot  -1.57517 0.164737 -2.05225
RightToes  5.82063e-011 0 -3.6325e-017
Spine  -2.21686 -0.379986 3.69876
Spine1  7.40165 0.0686422 -2.1557
HEad  -5.12311 4.52416 -3.03408
LeftShoulder1  1.85309 -4.27436 -17.0895
LeftArm  -16.524 13.4498 -0.678667
LeftForeArm  14.4655 -10.1459 -2.51144
LeftHand  -0.244104 0.0205437 5.32207
RightShoulder  1.39649 2.79413 15.4136
RightArm  -18.4469 -8.13547 1.71716
RightForeArm  -8.56335 4.9405 4.14786
RightHand  -1.01895 2.27214 -15.5589
LeftUpLeg  1.32598 4.79899 3.43607
LeftLeg  0.400168 5.70943 -3.75923
LeftFoot  0.745283 -0.0137205 0.0808577
LeftToes  4.36525e-011 -9.98543e-011 1.0027e-011
213
root  -53.7325 41.6034 -3.39645 -168.979 -86.1677 167.231
RightUpLeg  2.26981 -7.3769 -4.19667
RightLeg  3.38089 -1.14826 3.25981
RightFoot  -1.66625 0.150901 -1.91559
RightToes  5.82063e-011 0 -3.6325e-017
Spine  -2.64311 -0.371201 3.61365
Spine1  7.3183 0.126573 -2.45454
HEad  -4.5298 4.45014 -2.70373
LeftShoulder1  1.38957 -3.24241 -13.557
LeftArm  -17.1382 12.7983 0.24654
LeftForeArm  12.4097 -10.6216 -2.49797
LeftHand  -0.244104 0.0205437 5.32207
RightShoulder  1.00689 1.76052 12.0617
RightArm  -19.2915 -6.66311 0.47554
RightForeArm  -8.37454 5.21345 4.08148
RightHand  -0.903899 1.78641 -14.7476
LeftUpLeg  1.63364 4.74199 3.32445
LeftLeg  0.193836 6.20351 -3.70363
LeftFoot  0.526923 -0.0183369 0.159422
LeftToes  4.36525e-011 -9.98543e-011 1.0027e-011
214
root  -53.882 41.6092 -3.35262 -169.609 -85.9003 168.076
RightUpLeg  2.26081 -7.33978 -4.24881
RightLeg  3.33413 -0.923715 3.21669
RightFoot  -1.8019 0.146809 -1.90551
RightToes  5.82063e-011 0 -3.6325e-017
Spine  -2.72168 -0.416003 3.53011
Spine1  6.79067 0.12277 -2.71269
HEad  -3.92892 4.45511 -2.43254
LeftShoulder1  1.02926 -2.28297 -10.4581
LeftArm  -18.3489 12.0678 0.982458
LeftForeArm  12.3325 -11.2934 -2.27304
LeftHand  -0.244104 0.0205437 5.32207
RightShoulder  0.715647 0.853719 9.04695
RightArm  -19.5986 -5.41225 -0.447173
RightForeArm  -8.12426 5.62889 4.17134
RightHand  -0.869918 1.67485 -14.4168
LeftUpLeg  1.78005 4.67729 3.22367
LeftLeg  -0.00595741 6.5412 -3.67945
LeftFoot  0.275927 -0.01265 0.0893053
LeftToes  4.36525e-011 -9.98543e-011 1.0027e-011
215
root  -53.9951 41.6088 -3.32233 -169.71 -85.8622 168.415
RightUpLeg  2.20234 -7.38518 -4.31085
RightLeg  3.30053 -0.835369 3.26743
RightFoot  -1.92834 0.144118 -1.90928
RightToes  5.82063e-011 0 -3.6325e-017
Spine  -2.6168 -0.512955 3.20822
Spine1  6.14201 -0.0209172 -2.54166
HEad  -3.4827 4.44694 -2.22738
LeftShoulder1  0.812591 -1.70881 -8.01334
LeftArm  -19.4676 11.5332 1.55996
LeftForeArm  12.2209 -12.1325 -2.13453
LeftHand  -0.244104 0.0205437 5.32207
RightShoulder  0.494839 0.0725742 6.14485
RightArm  -19.2557 -4.25957 -0.995827
RightForeArm  -8.11394 5.88477 4.41385
RightHand  -0.862702 1.51435 -14.6176
LeftUpLeg  1.73865 4.68456 3.19572
LeftLeg  -0.0670693 6.57671 -3.72072
LeftFoot  0.103478 -0.00895791 0.057278
LeftToes  4.36525e-011 -9.98543e-011 1.0027e-011
216
root  -54.0937 41.6084 -3.30466 -169.648 -85.9519 168.505
RightUpLeg  2.29191 -7.46512 -4.38311
RightLeg  3.15391 -0.799164 3.35843
RightFoot  -1.99945 0.134581 -1.81237
RightToes  5.82063e-011 0 -3.6325e-017
Spine  -2.59078 -0.625873 2.68253
Spine1  5.82865 -0.241702 -2.03751
HEad  -3.269 4.32425 -2.12125
LeftShoulder1  0.710034 -1.52076 -6.37205
LeftArm  -20.5501 11.1264 2.20556
LeftForeArm  12.3531 -13.0496 -2.0498
LeftHand  -0.244104 0.0205437 5.32207
RightShoulder  0.338131 -0.577957 3.57852
RightArm  -19.0195 -3.093 -1.26
RightForeArm  -7.30437 5.78868 4.52086
RightHand  -0.839585 1.32158 -14.624
LeftUpLeg  1.70455 4.72176 3.1955
LeftLeg  -0.0233203 6.47439 -3.75728
LeftFoot  -0.0240338 -0.0119666 0.132127
LeftToes  4.36525e-011 -9.98543e-011 1.0027e-011
217
root  -54.183 41.6075 -3.29265 -169.69 -86.0112 168.624
RightUpLeg  2.45027 -7.49328 -4.42388
RightLeg  2.98884 -0.78331 3.38793
RightFoot  -2.05797 0.121054 -1.66068
RightToes  5.82063e-011 0 -3.6325e-017
Spine  -2.60277 -0.714478 2.18568
Spine1  5.75243 -0.423626 -1.56843
HEad  -3.13145 4.16108 -2.14545
LeftShoulder1  0.655798 -1.45206 -5.36081
LeftArm  -21.3567 10.5778 2.86401
LeftForeArm  12.5934 -13.7884 -2.05727
LeftHand  -0.244104 0.0205437 5.32207
RightShoulder  0.238423 -1.10127 1.7265
RightArm  -19.4209 -1.97535 -1.39672
RightForeArm  -5.88815 5.52182 4.3963
RightHand  -0.825312 1.38012 -14.2626
LeftUpLeg  1.73442 4.73843 3.19169
LeftLeg  0.0492022 6.42098 -3.75491
LeftFoot  -0.211993 -0.0125395 0.167514
LeftToes  4.36525e-011 -9.98543e-011 1.0027e-011
218
root  -54.2484 41.6051 -3.28246 -170.129 -85.9963 169.159
RightUpLeg  2.46714 -7.43963 -4.38397
RightLeg  2.95188 -0.81706 3.34062
RightFoot  -2.14136 0.113024 -1.58
RightToes  5.82063e-011 0 -3.6325e-017
Spine  -2.49327 -0.764726 1.8239
Spine1  5.59709 -0.541104 -1.21761
HEad  -2.99163 4.11969 -2.26172
LeftShoulder1  0.616452 -1.36727 -4.71194
LeftArm  -21.5162 9.87124 3.25014
LeftForeArm  12.541 -14.1588 -2.1829
LeftHand  -0.244104 0.0205437 5.32207
RightShoulder  0.181196 -1.46815 0.563305
RightArm  -20.2778 -1.06139 -1.39499
RightForeArm  -5.47755 5.35337 4.21717
RightHand  -0.839539 1.55593 -14.1493
LeftUpLeg  1.67977 4.75917 3.21374
LeftLeg  0.185987 6.42184 -3.74458
LeftFoot  -0.437463 -0.00867883 0.128042
LeftToes  4.36525e-011 -9.98543e-011 1.0027e-011
219
root  -54.2892 41.5998 -3.27231 -170.766 -85.933 169.915
RightUpLeg  2.35857 -7.37034 -4.31467
RightLeg  3.01642 -0.846572 3.28519
RightFoot  -2.23261 0.111765 -1.59352
RightToes  5.82063e-011 0 -3.6325e-017
Spine  -2.32657 -0.794807 1.58435
Spine1  5.4557 -0.616316 -0.976844
HEad  -3.0065 4.21284 -2.33977
LeftShoulder1  0.588258 -1.29837 -4.25627
LeftArm  -21.1577 9.11232 3.17889
LeftForeArm  12.4372 -14.0162 -2.31866
LeftHand  -0.244104 0.0205437 5.32207
RightShoulder  0.16018 -1.60459 0.0261174
RightArm  -21.0525 -0.282234 -1.34292
RightForeArm  -6.25066 5.16003 4.11582
RightHand  -0.86786 1.61296 -14.5039
LeftUpLeg  1.53309 4.79619 3.24641
LeftLeg  0.382224 6.46665 -3.74534
LeftFoot  -0.618194 -0.00716909 0.115222
LeftToes  4.36525e-011 -9.98543e-011 1.0027e-011
